<svg width="190" height="30" viewBox="0 0 190 30" fill="none" xmlns="http://www.w3.org/2000/svg">
<path d="M14.8438 15.4961H9.55078V19.9492H16.6602V21.4727H0.644531V19.9492H7.69531V15.4961H2.55859V7.60547H4.43359V13.9727H14.8438V15.4961ZM33.3062 16.1602H17.3297V14.6758H24.4195V12.8203H19.3219V6.96094H31.3336V8.42578H21.1578V11.3359H31.4508V12.8203H26.2164V14.6758H33.3062V16.1602ZM25.2984 17.293C26.5549 17.293 27.6324 17.4167 28.5309 17.6641C29.4358 17.9115 30.1292 18.276 30.6109 18.7578C31.0927 19.2331 31.3336 19.806 31.3336 20.4766C31.3336 21.1471 31.0927 21.7201 30.6109 22.1953C30.1357 22.6706 29.4456 23.0319 28.5406 23.2793C27.6357 23.5267 26.5549 23.6536 25.2984 23.6602C24.0354 23.6536 22.9482 23.5267 22.0367 23.2793C21.1318 23.0319 20.4352 22.6706 19.9469 22.1953C19.4651 21.7201 19.2242 21.1471 19.2242 20.4766C19.2242 19.806 19.4651 19.2331 19.9469 18.7578C20.4352 18.276 21.1318 17.9115 22.0367 17.6641C22.9482 17.4167 24.0354 17.293 25.2984 17.293ZM25.2984 18.7383C23.9573 18.7383 22.9221 18.8913 22.193 19.1973C21.4638 19.4967 21.0992 19.9232 21.0992 20.4766C21.0992 21.0365 21.4638 21.4661 22.193 21.7656C22.9286 22.0586 23.9638 22.2018 25.2984 22.1953C26.6201 22.2083 27.6454 22.0651 28.3746 21.7656C29.1103 21.4596 29.4781 21.0299 29.4781 20.4766C29.4781 19.9232 29.1103 19.4967 28.3746 19.1973C27.6454 18.8913 26.6201 18.7383 25.2984 18.7383ZM50.0305 21.4727H34.0148V19.9492H41.0852V15.8086H42.9406V19.9492H50.0305V21.4727ZM42.9602 9.34375C42.9602 10.2096 43.2531 11.0397 43.8391 11.834C44.4315 12.6217 45.216 13.2923 46.1926 13.8457C47.1691 14.3926 48.2141 14.7539 49.3273 14.9297L48.5852 16.3945C47.6411 16.2122 46.7362 15.916 45.8703 15.5059C45.0109 15.0892 44.246 14.5749 43.5754 13.9629C42.9048 13.3509 42.384 12.6706 42.0129 11.9219C41.6418 12.6836 41.1242 13.377 40.4602 14.002C39.7961 14.6204 39.0376 15.1413 38.1848 15.5645C37.3384 15.9876 36.4497 16.2904 35.5187 16.4727L34.757 15.0078C35.8443 14.8255 36.8697 14.4544 37.8332 13.8945C38.7967 13.3281 39.5682 12.6445 40.1477 11.8438C40.7336 11.043 41.0266 10.2096 41.0266 9.34375V9.1875H35.343V7.66406H48.6437V9.1875H42.9602V9.34375ZM64.45 10.5547H66.9891V12.1172H64.45V16.3555H62.5945V6.16016H64.45V10.5547ZM55.0945 18.7773H62.5945V17.0781H64.45V23.4453H53.2586V17.0781H55.0945V18.7773ZM62.5945 21.9609V20.2227H55.0945V21.9609H62.5945ZM61.1492 9.36328H50.7195V7.87891H55.0164V6.00391H56.8719V7.87891H61.1492V9.36328ZM55.9344 10.0859C56.7677 10.0859 57.5034 10.2129 58.1414 10.4668C58.7859 10.7142 59.284 11.069 59.6355 11.5312C59.9936 11.9935 60.1727 12.5339 60.1727 13.1523C60.1727 13.7643 59.9936 14.3047 59.6355 14.7734C59.284 15.2357 58.7859 15.5938 58.1414 15.8477C57.5034 16.1016 56.7677 16.2253 55.9344 16.2188C55.088 16.2253 54.3426 16.1016 53.698 15.8477C53.06 15.5938 52.562 15.2357 52.2039 14.7734C51.8523 14.3047 51.6766 13.7643 51.6766 13.1523C51.6766 12.5339 51.8523 11.9935 52.2039 11.5312C52.5555 11.069 53.0535 10.7142 53.698 10.4668C54.3426 10.2129 55.088 10.0859 55.9344 10.0859ZM55.9344 11.4727C55.4461 11.4661 55.0132 11.5345 54.6355 11.6777C54.2645 11.8145 53.9747 12.013 53.7664 12.2734C53.5646 12.5273 53.4669 12.8203 53.4734 13.1523C53.4669 13.4909 53.5646 13.7904 53.7664 14.0508C53.9747 14.3047 54.2645 14.5033 54.6355 14.6465C55.0066 14.7832 55.4396 14.8516 55.9344 14.8516C56.4227 14.8516 56.8556 14.7832 57.2332 14.6465C57.6108 14.5033 57.9038 14.3047 58.1121 14.0508C58.3204 13.7904 58.4279 13.4909 58.4344 13.1523C58.4279 12.8138 58.3204 12.5176 58.1121 12.2637C57.9038 12.0098 57.6108 11.8145 57.2332 11.6777C56.8556 11.5345 56.4227 11.4661 55.9344 11.4727ZM87.0195 23.6602H85.1641V6.16016H87.0195V23.6602ZM72.6445 18.8945C74.7474 18.8815 76.349 18.8587 77.4492 18.8262V17.0781C76.7656 16.9935 76.1699 16.8079 75.6621 16.5215C75.1543 16.235 74.7637 15.8672 74.4902 15.418C74.2168 14.9688 74.0833 14.4609 74.0898 13.8945C74.0833 13.2435 74.2559 12.6706 74.6074 12.1758C74.959 11.681 75.457 11.2969 76.1016 11.0234C76.7461 10.75 77.4883 10.6133 78.3281 10.6133C79.1745 10.6133 79.9232 10.75 80.5742 11.0234C81.2318 11.2969 81.7396 11.681 82.0977 12.1758C82.4622 12.6706 82.6445 13.2435 82.6445 13.8945C82.6445 14.4544 82.5046 14.959 82.2246 15.4082C81.9512 15.8509 81.5605 16.2155 81.0527 16.502C80.5514 16.7884 79.9622 16.9772 79.2852 17.0684V18.7578C81.0039 18.6862 82.6055 18.556 84.0898 18.3672L84.2266 19.7539C82.5013 20.0404 80.724 20.2259 78.8945 20.3105C77.0651 20.3952 75.0664 20.4375 72.8984 20.4375L72.6445 18.8945ZM83.6992 9.73438H73.0156V8.25H77.4492V6.19922H79.3047V8.25H83.6992V9.73438ZM78.3281 12.0586C77.8398 12.0586 77.4069 12.1367 77.0293 12.293C76.6517 12.4427 76.3587 12.6576 76.1504 12.9375C75.9421 13.2109 75.8411 13.5299 75.8477 13.8945C75.8411 14.2591 75.9421 14.5781 76.1504 14.8516C76.3587 15.1185 76.6517 15.3268 77.0293 15.4766C77.4069 15.6198 77.8398 15.6914 78.3281 15.6914C78.8294 15.6914 79.2721 15.6198 79.6562 15.4766C80.0404 15.3268 80.3366 15.1185 80.5449 14.8516C80.7598 14.5781 80.8672 14.2591 80.8672 13.8945C80.8672 13.5299 80.7598 13.2109 80.5449 12.9375C80.3301 12.6576 80.0306 12.4427 79.6465 12.293C79.2624 12.1367 78.8229 12.0586 78.3281 12.0586ZM104.271 23.6602H102.513V6.16016H104.271V23.6602ZM100.697 22.8008H98.9391V16.8438H95.9508V15.3203H98.9391V12.4688H96.234C95.3421 15.5807 93.3401 18.0677 90.2281 19.9297L89.1344 18.6016C90.9573 17.5208 92.3408 16.2513 93.2848 14.793C94.2353 13.3346 94.7919 11.6875 94.9547 9.85156H89.9938V8.32812H96.7906C96.7906 9.23958 96.719 10.112 96.5758 10.9453H98.9391V6.60938H100.697V22.8008ZM113.808 17.1562C115.071 17.1562 116.165 17.2865 117.089 17.5469C118.02 17.8008 118.736 18.1719 119.238 18.6602C119.739 19.1419 119.993 19.7214 119.999 20.3984C119.993 21.069 119.736 21.6484 119.228 22.1367C118.726 22.625 118.01 22.9961 117.079 23.25C116.155 23.5039 115.064 23.6276 113.808 23.6211C112.564 23.6276 111.477 23.5007 110.546 23.2402C109.622 22.9863 108.909 22.6152 108.407 22.127C107.906 21.6452 107.655 21.069 107.655 20.3984C107.655 19.7214 107.906 19.1419 108.407 18.6602C108.909 18.1719 109.622 17.8008 110.546 17.5469C111.471 17.2865 112.558 17.1562 113.808 17.1562ZM113.808 18.5625C112.929 18.5625 112.164 18.6374 111.513 18.7871C110.862 18.9303 110.364 19.1419 110.019 19.4219C109.674 19.6953 109.504 20.0208 109.511 20.3984C109.504 20.7695 109.674 21.0918 110.019 21.3652C110.364 21.6322 110.859 21.8372 111.503 21.9805C112.154 22.1237 112.922 22.1953 113.808 22.1953C114.693 22.1953 115.461 22.1237 116.113 21.9805C116.77 21.8372 117.275 21.6322 117.626 21.3652C117.978 21.0918 118.157 20.7695 118.163 20.3984C118.157 20.0208 117.978 19.6953 117.626 19.4219C117.275 19.1419 116.77 18.9303 116.113 18.7871C115.461 18.6374 114.693 18.5625 113.808 18.5625ZM119.863 8.48438C119.863 9.42839 119.833 10.2389 119.775 10.916C119.723 11.5931 119.589 12.332 119.374 13.1328L117.558 12.9375C117.766 12.1432 117.896 11.4303 117.948 10.7988C118.001 10.1608 118.027 9.39583 118.027 8.50391H107.792V7.01953H119.863V8.48438ZM121.855 15.7109H105.937V14.207H112.323V10.9258H114.14V14.207H121.855V15.7109ZM129.028 10.6133C129.022 11.668 129.214 12.7064 129.604 13.7285C130.001 14.7441 130.552 15.6491 131.255 16.4434C131.964 17.2376 132.765 17.8333 133.657 18.2305L132.544 19.6953C131.548 19.2201 130.665 18.5202 129.897 17.5957C129.129 16.6647 128.537 15.597 128.12 14.3926C127.71 15.6882 127.111 16.834 126.323 17.8301C125.542 18.8262 124.634 19.5781 123.598 20.0859L122.466 18.5234C123.371 18.1198 124.178 17.5078 124.887 16.6875C125.604 15.8672 126.16 14.9264 126.557 13.8652C126.955 12.7975 127.153 11.7135 127.153 10.6133V7.625H129.028V10.6133ZM137.095 23.6992H135.239V6.16016H137.095V23.6992ZM145.713 10.6133C145.707 11.668 145.899 12.7064 146.289 13.7285C146.687 14.7441 147.237 15.6491 147.94 16.4434C148.649 17.2376 149.45 17.8333 150.342 18.2305L149.229 19.6953C148.233 19.2201 147.351 18.5202 146.582 17.5957C145.814 16.6647 145.222 15.597 144.805 14.3926C144.395 15.6882 143.796 16.834 143.008 17.8301C142.227 18.8262 141.319 19.5781 140.284 20.0859L139.151 18.5234C140.056 18.1198 140.863 17.5078 141.573 16.6875C142.289 15.8672 142.845 14.9264 143.243 13.8652C143.64 12.7975 143.838 11.7135 143.838 10.6133V7.625H145.713V10.6133ZM153.78 23.6992H151.924V6.16016H153.78V23.6992ZM164.859 8.64062C164.859 9.5651 165.156 10.4635 165.748 11.3359C166.347 12.2083 167.138 12.9538 168.121 13.5723C169.104 14.1842 170.152 14.5911 171.266 14.793L170.406 16.3359C169.475 16.1341 168.583 15.8021 167.73 15.3398C166.878 14.8776 166.116 14.3145 165.445 13.6504C164.781 12.9798 164.264 12.2409 163.893 11.4336C163.515 12.2344 162.994 12.9701 162.33 13.6406C161.673 14.3047 160.917 14.8678 160.064 15.3301C159.212 15.7923 158.316 16.1276 157.379 16.3359L156.559 14.793C157.659 14.5846 158.697 14.1745 159.674 13.5625C160.65 12.944 161.432 12.2018 162.018 11.3359C162.61 10.4635 162.906 9.5651 162.906 8.64062V7.3125H164.859V8.64062ZM171.988 21.3555H155.973V19.8125H171.988V21.3555ZM180.099 8.79688H175.216V10.6914H179.416V12.1367H175.216V14.2266C176.427 14.2135 177.453 14.1777 178.293 14.1191C179.132 14.0605 179.982 13.9531 180.841 13.7969L181.017 15.2617C180.054 15.4375 179.103 15.5579 178.166 15.623C177.235 15.6816 176.037 15.7109 174.572 15.7109H173.439V7.27344H180.099V8.79688ZM187.58 16.668H185.822V6.16016H187.58V16.668ZM184.142 16.5312H182.384V12H180.216V10.4961H182.384V6.45312H184.142V16.5312ZM187.58 23.4453H175.88V17.4492H187.58V23.4453ZM177.736 21.9414H185.763V18.9141H177.736V21.9414Z" fill="#575756"/>
</svg>
